<mxfile host="app.diagrams.net" agent="Mozilla/5.0 (Windows NT 10.0; Win64; x64) AppleWebKit/537.36 (KHTML, like Gecko) Chrome/127.0.0.0 Safari/537.36" version="24.7.7" pages="2">
  <diagram name="1. Tổng quát hệ thống" id="fP9auzW45xx2CLDPIy9b">
    <mxGraphModel dx="880" dy="460" grid="1" gridSize="10" guides="1" tooltips="1" connect="1" arrows="1" fold="1" page="1" pageScale="1" pageWidth="1169" pageHeight="1654" math="0" shadow="0">
      <root>
        <mxCell id="0" />
        <mxCell id="1" parent="0" />
        <mxCell id="fgK608QwI47DZ2nsJaoJ-1" value="Quản trị hệ thống" style="shape=umlActor;verticalLabelPosition=bottom;verticalAlign=top;html=1;outlineConnect=0;" vertex="1" parent="1">
          <mxGeometry x="200" y="360" width="30" height="60" as="geometry" />
        </mxCell>
        <mxCell id="fgK608QwI47DZ2nsJaoJ-2" value="Quản lý tài khoản" style="ellipse;whiteSpace=wrap;html=1;" vertex="1" parent="1">
          <mxGeometry x="400" y="210" width="200" height="60" as="geometry" />
        </mxCell>
        <mxCell id="fgK608QwI47DZ2nsJaoJ-4" value="" style="endArrow=classic;html=1;rounded=0;entryX=0.02;entryY=0.617;entryDx=0;entryDy=0;entryPerimeter=0;" edge="1" parent="1" source="fgK608QwI47DZ2nsJaoJ-1" target="fgK608QwI47DZ2nsJaoJ-2">
          <mxGeometry width="50" height="50" relative="1" as="geometry">
            <mxPoint x="430" y="270" as="sourcePoint" />
            <mxPoint x="410" y="250" as="targetPoint" />
          </mxGeometry>
        </mxCell>
      </root>
    </mxGraphModel>
  </diagram>
  <diagram id="gpl6Tiht97kuhlmDtdSY" name="2. Quản lý người dùng">
    <mxGraphModel dx="880" dy="460" grid="1" gridSize="10" guides="1" tooltips="1" connect="1" arrows="1" fold="1" page="1" pageScale="1" pageWidth="1169" pageHeight="1654" math="0" shadow="0">
      <root>
        <mxCell id="0" />
        <mxCell id="1" parent="0" />
        <mxCell id="P1gsj1bj7C8Zf4YwCjOg-1" value="Quản trị hệ thống" style="shape=umlActor;verticalLabelPosition=bottom;verticalAlign=top;html=1;outlineConnect=0;" vertex="1" parent="1">
          <mxGeometry x="200" y="360" width="30" height="60" as="geometry" />
        </mxCell>
        <mxCell id="P1gsj1bj7C8Zf4YwCjOg-2" value="Thêm người dùng" style="ellipse;whiteSpace=wrap;html=1;" vertex="1" parent="1">
          <mxGeometry x="400" y="220" width="200" height="60" as="geometry" />
        </mxCell>
        <mxCell id="P1gsj1bj7C8Zf4YwCjOg-3" value="" style="endArrow=classic;html=1;rounded=0;entryX=0.02;entryY=0.617;entryDx=0;entryDy=0;entryPerimeter=0;" edge="1" parent="1" source="P1gsj1bj7C8Zf4YwCjOg-1" target="P1gsj1bj7C8Zf4YwCjOg-2">
          <mxGeometry width="50" height="50" relative="1" as="geometry">
            <mxPoint x="430" y="270" as="sourcePoint" />
            <mxPoint x="410" y="250" as="targetPoint" />
          </mxGeometry>
        </mxCell>
        <mxCell id="7n7GZMlqxCRdB0CJF0M--1" value="Duyệt người dùng" style="ellipse;whiteSpace=wrap;html=1;" vertex="1" parent="1">
          <mxGeometry x="400" y="320" width="200" height="60" as="geometry" />
        </mxCell>
        <mxCell id="7n7GZMlqxCRdB0CJF0M--2" value="" style="endArrow=classic;html=1;rounded=0;entryX=0;entryY=0.5;entryDx=0;entryDy=0;exitX=1;exitY=0.3333333333333333;exitDx=0;exitDy=0;exitPerimeter=0;" edge="1" parent="1" source="P1gsj1bj7C8Zf4YwCjOg-1" target="7n7GZMlqxCRdB0CJF0M--1">
          <mxGeometry width="50" height="50" relative="1" as="geometry">
            <mxPoint x="240" y="389" as="sourcePoint" />
            <mxPoint x="414" y="267" as="targetPoint" />
          </mxGeometry>
        </mxCell>
      </root>
    </mxGraphModel>
  </diagram>
</mxfile>
